<mxfile host="app.diagrams.net" agent="Mozilla/5.0 (Windows NT 10.0; Win64; x64; rv:130.0) Gecko/20100101 Firefox/130.0" version="24.7.16">
  <diagram id="C5RBs43oDa-KdzZeNtuy" name="Page-1">
    <mxGraphmodelos dx="1434" dy="774" grid="1" gridSize="10" guides="1" tooltips="1" connect="1" arrows="1" fold="1" page="1" pageScale="1" pageWidth="827" pageHeight="1169" math="0" shadow="0">
      <root>
        <mxCell id="WIyWlLk6GJQsqaUBKTNV-0" />
        <mxCell id="WIyWlLk6GJQsqaUBKTNV-1" parent="WIyWlLk6GJQsqaUBKTNV-0" />
        <mxCell id="WIyWlLk6GJQsqaUBKTNV-2" value="" style="rounded=0;html=1;jettySize=auto;orthogonalLoop=1;fontSize=11;endArrow=block;endFill=0;endSize=8;strokeWidth=1;shadow=0;labelBackgroundColor=none;edgeStyle=orthogonalEdgeStyle;" parent="WIyWlLk6GJQsqaUBKTNV-1" source="WIyWlLk6GJQsqaUBKTNV-3" edge="1">
          <mxGeometry relative="1" as="geometry">
            <mxPoint x="350" y="230" as="targetPoint" />
          </mxGeometry>
        </mxCell>
        <mxCell id="WIyWlLk6GJQsqaUBKTNV-3" value="Lectura archivo csv" style="rounded=1;whiteSpace=wrap;html=1;fontSize=12;glass=0;strokeWidth=1;shadow=0;" parent="WIyWlLk6GJQsqaUBKTNV-1" vertex="1">
          <mxGeometry x="290" y="140" width="120" height="40" as="geometry" />
        </mxCell>
        <mxCell id="bpX8HFnebk9BZVQk3_Dv-1" value="" style="edgeStyle=orthogonalEdgeStyle;rounded=0;orthogonalLoop=1;jettySize=auto;html=1;" edge="1" parent="WIyWlLk6GJQsqaUBKTNV-1" source="bpX8HFnebk9BZVQk3_Dv-0" target="WIyWlLk6GJQsqaUBKTNV-3">
          <mxGeometry relative="1" as="geometry" />
        </mxCell>
        <mxCell id="bpX8HFnebk9BZVQk3_Dv-0" value="Inicio" style="ellipse;whiteSpace=wrap;html=1;" vertex="1" parent="WIyWlLk6GJQsqaUBKTNV-1">
          <mxGeometry x="305" y="50" width="90" height="50" as="geometry" />
        </mxCell>
        <mxCell id="bpX8HFnebk9BZVQk3_Dv-4" value="" style="edgeStyle=orthogonalEdgeStyle;rounded=0;orthogonalLoop=1;jettySize=auto;html=1;" edge="1" parent="WIyWlLk6GJQsqaUBKTNV-1" source="bpX8HFnebk9BZVQk3_Dv-2" target="bpX8HFnebk9BZVQk3_Dv-3">
          <mxGeometry relative="1" as="geometry" />
        </mxCell>
        <mxCell id="bpX8HFnebk9BZVQk3_Dv-2" value="Archivo csv" style="shape=parallelogram;perimeter=parallelogramPerimeter;whiteSpace=wrap;html=1;fixedSize=1;" vertex="1" parent="WIyWlLk6GJQsqaUBKTNV-1">
          <mxGeometry x="290" y="230" width="120" height="60" as="geometry" />
        </mxCell>
        <mxCell id="bpX8HFnebk9BZVQk3_Dv-7" value="" style="edgeStyle=orthogonalEdgeStyle;rounded=0;orthogonalLoop=1;jettySize=auto;html=1;" edge="1" parent="WIyWlLk6GJQsqaUBKTNV-1" source="bpX8HFnebk9BZVQk3_Dv-3" target="bpX8HFnebk9BZVQk3_Dv-5">
          <mxGeometry relative="1" as="geometry" />
        </mxCell>
        <mxCell id="bpX8HFnebk9BZVQk3_Dv-3" value="ValidaciÃ³n de cotizastes" style="rounded=0;whiteSpace=wrap;html=1;" vertex="1" parent="WIyWlLk6GJQsqaUBKTNV-1">
          <mxGeometry x="290" y="350" width="120" height="60" as="geometry" />
        </mxCell>
        <mxCell id="bpX8HFnebk9BZVQk3_Dv-8" value="" style="edgeStyle=orthogonalEdgeStyle;rounded=0;orthogonalLoop=1;jettySize=auto;html=1;" edge="1" parent="WIyWlLk6GJQsqaUBKTNV-1" source="bpX8HFnebk9BZVQk3_Dv-5" target="bpX8HFnebk9BZVQk3_Dv-6">
          <mxGeometry relative="1" as="geometry" />
        </mxCell>
        <mxCell id="bpX8HFnebk9BZVQk3_Dv-25" value="" style="edgeStyle=orthogonalEdgeStyle;rounded=0;orthogonalLoop=1;jettySize=auto;html=1;" edge="1" parent="WIyWlLk6GJQsqaUBKTNV-1" source="bpX8HFnebk9BZVQk3_Dv-5" target="bpX8HFnebk9BZVQk3_Dv-24">
          <mxGeometry relative="1" as="geometry" />
        </mxCell>
        <mxCell id="bpX8HFnebk9BZVQk3_Dv-5" value="Cumple requisitos" style="rhombus;whiteSpace=wrap;html=1;" vertex="1" parent="WIyWlLk6GJQsqaUBKTNV-1">
          <mxGeometry x="310" y="470" width="80" height="80" as="geometry" />
        </mxCell>
        <mxCell id="bpX8HFnebk9BZVQk3_Dv-10" value="" style="edgeStyle=orthogonalEdgeStyle;rounded=0;orthogonalLoop=1;jettySize=auto;html=1;" edge="1" parent="WIyWlLk6GJQsqaUBKTNV-1" source="bpX8HFnebk9BZVQk3_Dv-6" target="bpX8HFnebk9BZVQk3_Dv-9">
          <mxGeometry relative="1" as="geometry" />
        </mxCell>
        <mxCell id="bpX8HFnebk9BZVQk3_Dv-14" value="" style="edgeStyle=orthogonalEdgeStyle;rounded=0;orthogonalLoop=1;jettySize=auto;html=1;" edge="1" parent="WIyWlLk6GJQsqaUBKTNV-1" source="bpX8HFnebk9BZVQk3_Dv-6" target="bpX8HFnebk9BZVQk3_Dv-13">
          <mxGeometry relative="1" as="geometry" />
        </mxCell>
        <mxCell id="bpX8HFnebk9BZVQk3_Dv-6" value="Esta embargado" style="rhombus;whiteSpace=wrap;html=1;" vertex="1" parent="WIyWlLk6GJQsqaUBKTNV-1">
          <mxGeometry x="310" y="610" width="80" height="80" as="geometry" />
        </mxCell>
        <mxCell id="bpX8HFnebk9BZVQk3_Dv-12" value="" style="edgeStyle=orthogonalEdgeStyle;rounded=0;orthogonalLoop=1;jettySize=auto;html=1;" edge="1" parent="WIyWlLk6GJQsqaUBKTNV-1" source="bpX8HFnebk9BZVQk3_Dv-9" target="bpX8HFnebk9BZVQk3_Dv-11">
          <mxGeometry relative="1" as="geometry" />
        </mxCell>
        <mxCell id="bpX8HFnebk9BZVQk3_Dv-9" value="Agregar a cola de prioridad" style="rounded=0;whiteSpace=wrap;html=1;" vertex="1" parent="WIyWlLk6GJQsqaUBKTNV-1">
          <mxGeometry x="290" y="760" width="120" height="60" as="geometry" />
        </mxCell>
        <mxCell id="bpX8HFnebk9BZVQk3_Dv-11" value="Fin" style="ellipse;whiteSpace=wrap;html=1;" vertex="1" parent="WIyWlLk6GJQsqaUBKTNV-1">
          <mxGeometry x="307" y="910" width="86" height="50" as="geometry" />
        </mxCell>
        <mxCell id="bpX8HFnebk9BZVQk3_Dv-15" style="edgeStyle=orthogonalEdgeStyle;rounded=0;orthogonalLoop=1;jettySize=auto;html=1;exitX=0.5;exitY=1;exitDx=0;exitDy=0;entryX=0.5;entryY=0;entryDx=0;entryDy=0;" edge="1" parent="WIyWlLk6GJQsqaUBKTNV-1" source="bpX8HFnebk9BZVQk3_Dv-13" target="bpX8HFnebk9BZVQk3_Dv-18">
          <mxGeometry relative="1" as="geometry">
            <mxPoint x="540" y="910" as="targetPoint" />
          </mxGeometry>
        </mxCell>
        <mxCell id="bpX8HFnebk9BZVQk3_Dv-13" value="Agregar a lista negra" style="rounded=0;whiteSpace=wrap;html=1;" vertex="1" parent="WIyWlLk6GJQsqaUBKTNV-1">
          <mxGeometry x="480" y="620" width="120" height="60" as="geometry" />
        </mxCell>
        <mxCell id="bpX8HFnebk9BZVQk3_Dv-16" value="Si" style="text;html=1;align=center;verticalAlign=middle;whiteSpace=wrap;rounded=0;" vertex="1" parent="WIyWlLk6GJQsqaUBKTNV-1">
          <mxGeometry x="370" y="620" width="60" height="30" as="geometry" />
        </mxCell>
        <mxCell id="bpX8HFnebk9BZVQk3_Dv-17" value="No" style="text;html=1;align=center;verticalAlign=middle;whiteSpace=wrap;rounded=0;" vertex="1" parent="WIyWlLk6GJQsqaUBKTNV-1">
          <mxGeometry x="340" y="690" width="60" height="30" as="geometry" />
        </mxCell>
        <mxCell id="bpX8HFnebk9BZVQk3_Dv-20" value="" style="edgeStyle=orthogonalEdgeStyle;rounded=0;orthogonalLoop=1;jettySize=auto;html=1;entryX=1;entryY=0.5;entryDx=0;entryDy=0;" edge="1" parent="WIyWlLk6GJQsqaUBKTNV-1" source="bpX8HFnebk9BZVQk3_Dv-18" target="bpX8HFnebk9BZVQk3_Dv-11">
          <mxGeometry relative="1" as="geometry">
            <mxPoint x="540" y="930" as="targetPoint" />
          </mxGeometry>
        </mxCell>
        <mxCell id="bpX8HFnebk9BZVQk3_Dv-18" value="Lista negra" style="shape=document;whiteSpace=wrap;html=1;boundedLbl=1;" vertex="1" parent="WIyWlLk6GJQsqaUBKTNV-1">
          <mxGeometry x="480" y="760" width="120" height="80" as="geometry" />
        </mxCell>
        <mxCell id="bpX8HFnebk9BZVQk3_Dv-21" value="Si" style="text;html=1;align=center;verticalAlign=middle;whiteSpace=wrap;rounded=0;" vertex="1" parent="WIyWlLk6GJQsqaUBKTNV-1">
          <mxGeometry x="330" y="550" width="60" height="30" as="geometry" />
        </mxCell>
        <mxCell id="bpX8HFnebk9BZVQk3_Dv-22" value="No" style="text;html=1;align=center;verticalAlign=middle;whiteSpace=wrap;rounded=0;" vertex="1" parent="WIyWlLk6GJQsqaUBKTNV-1">
          <mxGeometry x="260" y="470" width="60" height="30" as="geometry" />
        </mxCell>
        <mxCell id="bpX8HFnebk9BZVQk3_Dv-27" value="" style="edgeStyle=orthogonalEdgeStyle;rounded=0;orthogonalLoop=1;jettySize=auto;html=1;entryX=0;entryY=0.5;entryDx=0;entryDy=0;exitX=0.5;exitY=1;exitDx=0;exitDy=0;" edge="1" parent="WIyWlLk6GJQsqaUBKTNV-1" source="bpX8HFnebk9BZVQk3_Dv-24" target="bpX8HFnebk9BZVQk3_Dv-11">
          <mxGeometry relative="1" as="geometry">
            <mxPoint x="300" y="950" as="targetPoint" />
          </mxGeometry>
        </mxCell>
        <mxCell id="bpX8HFnebk9BZVQk3_Dv-24" value="Rechazar solicitud" style="whiteSpace=wrap;html=1;" vertex="1" parent="WIyWlLk6GJQsqaUBKTNV-1">
          <mxGeometry x="70" y="480" width="120" height="60" as="geometry" />
        </mxCell>
      </root>
    </mxGraphmodelos>
  </diagram>
</mxfile>
